<svg width="235" height="24" viewBox="0 0 235 24" fill="none" xmlns="http://www.w3.org/2000/svg">
<path d="M9.6875 17.1738C9.6875 16.4811 9.92253 15.8997 10.3926 15.4297C10.8874 14.9349 11.4811 14.6875 12.1738 14.6875H17.8516L16.8867 11.9414C16.4909 10.9271 16.0951 9.97461 15.6992 9.08398C15.3281 8.16862 14.8952 7.33984 14.4004 6.59766C13.9551 5.85547 13.4479 5.45964 12.8789 5.41016C12.2852 5.45964 11.7533 5.85547 11.2832 6.59766C10.8132 7.33984 10.3802 8.16862 9.98438 9.08398C9.61328 9.97461 9.22982 10.9271 8.83398 11.9414L5.30859 21.5898C5.0612 22.1094 4.73958 22.5423 4.34375 22.8887C3.97266 23.2103 3.40365 23.3711 2.63672 23.3711C1.91927 23.3711 1.32552 23.1237 0.855469 22.6289C0.410156 22.1341 0.21224 21.5404 0.261719 20.8477C0.286458 20.526 0.360677 20.2292 0.484375 19.957L4.56641 9.41797C5.70443 6.64714 6.84245 4.4082 7.98047 2.70117C9.09375 1.01888 10.7266 0.165365 12.8789 0.140625C15.0065 0.165365 16.627 1.01888 17.7402 2.70117C18.8783 4.35872 20.0163 6.59766 21.1543 9.41797L25.2363 19.957C25.36 20.2292 25.4342 20.526 25.459 20.8477C25.5085 21.5404 25.2982 22.1341 24.8281 22.6289C24.3828 23.1237 23.8014 23.3711 23.084 23.3711C22.2676 23.3711 21.6615 23.2103 21.2656 22.8887C20.8945 22.5423 20.5853 22.1094 20.3379 21.5898L19.6328 19.6602H12.1738C11.4811 19.6602 10.8997 19.4128 10.4297 18.918C9.9349 18.4479 9.6875 17.8665 9.6875 17.1738ZM31.7305 23.3711C31.0625 23.3464 30.4935 23.1113 30.0234 22.666C29.5534 22.196 29.306 21.627 29.2812 20.959V11.7188C29.306 9.96224 29.5534 8.30469 30.0234 6.74609C30.5182 5.1875 31.3223 3.8763 32.4355 2.8125C33.5736 1.72396 35.0085 1.13021 36.7402 1.03125H51.0645C51.7324 1.05599 52.2891 1.30339 52.7344 1.77344C53.2044 2.21875 53.4518 2.77539 53.4766 3.44336C53.4766 4.13607 53.2415 4.72982 52.7715 5.22461C52.3262 5.7194 51.7572 5.97917 51.0645 6.00391H38.002C37.0618 6.05339 36.2826 6.41211 35.6641 7.08008C35.0456 7.74805 34.6497 8.51497 34.4766 9.38086C34.3281 10.222 34.2663 11.1497 34.291 12.1641V20.959C34.2663 21.6517 34.0065 22.2331 33.5117 22.7031C33.0169 23.1484 32.4232 23.3711 31.7305 23.3711ZM36.0352 13.6113C36.0352 12.9186 36.2826 12.3372 36.7773 11.8672C37.2474 11.3724 37.8288 11.125 38.5215 11.125H51.0645C51.7572 11.125 52.3385 11.3724 52.8086 11.8672C53.3034 12.3372 53.5508 12.9186 53.5508 13.6113C53.5508 14.304 53.3158 14.8978 52.8457 15.3926C52.3509 15.8626 51.7572 16.0977 51.0645 16.0977H38.5215C37.8288 16.0977 37.235 15.8626 36.7402 15.3926C36.2702 14.8978 36.0352 14.304 36.0352 13.6113ZM56.1484 20.4395C56.1484 19.7467 56.3835 19.1654 56.8535 18.6953C57.3483 18.2005 57.9421 17.9531 58.6348 17.9531H65.7598V6.00391H58.6348C57.9421 6.00391 57.3607 5.75651 56.8906 5.26172C56.3958 4.79167 56.1484 4.21029 56.1484 3.51758C56.1484 2.82487 56.3835 2.24349 56.8535 1.77344C57.3483 1.27865 57.9421 1.03125 58.6348 1.03125H77.8574C78.5501 1.03125 79.1439 1.26628 79.6387 1.73633C80.1087 2.23112 80.3438 2.82487 80.3438 3.51758C80.3438 4.21029 80.0964 4.80404 79.6016 5.29883C79.1315 5.76888 78.5501 6.00391 77.8574 6.00391H70.7695V17.9531H77.8574C78.5501 17.9531 79.1439 18.1882 79.6387 18.6582C80.1087 19.153 80.3438 19.7467 80.3438 20.4395C80.3438 21.1322 80.0964 21.7259 79.6016 22.2207C79.1315 22.6908 78.5501 22.9258 77.8574 22.9258H58.6348C57.9421 22.9258 57.3607 22.6784 56.8906 22.1836C56.3958 21.7135 56.1484 21.1322 56.1484 20.4395ZM108.176 3.51758C108.176 4.21029 107.928 4.79167 107.434 5.26172C106.964 5.75651 106.382 6.00391 105.689 6.00391H90.8457C90.3757 6.02865 89.9798 6.13997 89.6582 6.33789C89.3613 6.51107 89.1387 6.72135 88.9902 6.96875C88.8418 7.19141 88.7676 7.42643 88.7676 7.67383C88.7676 7.92122 88.8418 8.16862 88.9902 8.41602C89.1387 8.63867 89.3613 8.84896 89.6582 9.04688C89.9798 9.22005 90.3757 9.31901 90.8457 9.34375H101.385C103.117 9.39323 104.539 9.80143 105.652 10.5684C106.79 11.3105 107.594 12.1764 108.064 13.166C108.559 14.1309 108.807 15.1204 108.807 16.1348C108.807 17.1243 108.559 18.1139 108.064 19.1035C107.57 20.0684 106.766 20.9342 105.652 21.7012C104.539 22.4434 103.117 22.8145 101.385 22.8145H101.162C101.014 22.8392 100.865 22.8516 100.717 22.8516H86.6895C85.9967 22.8516 85.403 22.6165 84.9082 22.1465C84.4382 21.6517 84.2031 21.0579 84.2031 20.3652C84.2031 19.6725 84.4505 19.0911 84.9453 18.6211C85.4154 18.1263 85.9967 17.8789 86.6895 17.8789H101.607C102.077 17.9036 102.461 17.8171 102.758 17.6191C103.079 17.4212 103.314 17.1986 103.463 16.9512C103.611 16.679 103.686 16.4069 103.686 16.1348C103.686 15.9616 103.611 15.7266 103.463 15.4297C103.314 15.1081 103.079 14.8483 102.758 14.6504C102.461 14.4525 102.077 14.3411 101.607 14.3164H91.0684C89.3366 14.2669 87.9017 13.8711 86.7637 13.1289C85.6504 12.3867 84.8464 11.5456 84.3516 10.6055C83.8815 9.64062 83.6465 8.66341 83.6465 7.67383C83.6465 6.70898 83.8939 5.75651 84.3887 4.81641C84.8835 3.85156 85.6875 2.99805 86.8008 2.25586C87.9141 1.51367 89.3366 1.11784 91.0684 1.06836H91.291C91.4395 1.04362 91.5879 1.03125 91.7363 1.03125H105.689C106.382 1.03125 106.964 1.27865 107.434 1.77344C107.928 2.24349 108.176 2.82487 108.176 3.51758ZM115.523 0.4375C116.191 0.46224 116.76 0.709635 117.23 1.17969C117.701 1.625 117.948 2.18164 117.973 2.84961V9.04688H130.033V2.84961C130.058 2.1569 130.318 1.58789 130.812 1.14258C131.307 0.672526 131.901 0.4375 132.594 0.4375C133.262 0.46224 133.831 0.709635 134.301 1.17969C134.771 1.625 135.018 2.18164 135.043 2.84961V21.0332C134.895 22.5176 134.078 23.3216 132.594 23.4453C131.901 23.4453 131.295 23.2227 130.775 22.7773C130.281 22.3073 130.033 21.7259 130.033 21.0332V14.0195H117.973V21.0332C117.824 22.5176 117.008 23.3216 115.523 23.4453C114.831 23.4453 114.225 23.2227 113.705 22.7773C113.21 22.3073 112.963 21.7259 112.963 21.0332V2.84961C112.988 2.1569 113.247 1.58789 113.742 1.14258C114.237 0.672526 114.831 0.4375 115.523 0.4375ZM147.994 17.1738C147.994 16.4811 148.229 15.8997 148.699 15.4297C149.194 14.9349 149.788 14.6875 150.48 14.6875H156.158L155.193 11.9414C154.798 10.9271 154.402 9.97461 154.006 9.08398C153.635 8.16862 153.202 7.33984 152.707 6.59766C152.262 5.85547 151.755 5.45964 151.186 5.41016C150.592 5.45964 150.06 5.85547 149.59 6.59766C149.12 7.33984 148.687 8.16862 148.291 9.08398C147.92 9.97461 147.536 10.9271 147.141 11.9414L143.615 21.5898C143.368 22.1094 143.046 22.5423 142.65 22.8887C142.279 23.2103 141.71 23.3711 140.943 23.3711C140.226 23.3711 139.632 23.1237 139.162 22.6289C138.717 22.1341 138.519 21.5404 138.568 20.8477C138.593 20.526 138.667 20.2292 138.791 19.957L142.873 9.41797C144.011 6.64714 145.149 4.4082 146.287 2.70117C147.4 1.01888 149.033 0.165365 151.186 0.140625C153.313 0.165365 154.934 1.01888 156.047 2.70117C157.185 4.35872 158.323 6.59766 159.461 9.41797L163.543 19.957C163.667 20.2292 163.741 20.526 163.766 20.8477C163.815 21.5404 163.605 22.1341 163.135 22.6289C162.689 23.1237 162.108 23.3711 161.391 23.3711C160.574 23.3711 159.968 23.2103 159.572 22.8887C159.201 22.5423 158.892 22.1094 158.645 21.5898L157.939 19.6602H150.48C149.788 19.6602 149.206 19.4128 148.736 18.918C148.242 18.4479 147.994 17.8665 147.994 17.1738ZM171.299 23.5195C170.309 23.5195 169.48 23.1732 168.812 22.4805C168.169 21.7878 167.848 20.9219 167.848 19.8828C167.848 18.8438 168.169 17.9779 168.812 17.2852C169.48 16.5924 170.309 16.2461 171.299 16.2461C172.288 16.2461 173.117 16.5924 173.785 17.2852C174.453 17.9779 174.787 18.8438 174.787 19.8828C174.787 20.9219 174.453 21.7878 173.785 22.4805C173.117 23.1732 172.288 23.5195 171.299 23.5195Z" fill="white"/>
<path d="M182.357 0.4375C183.025 0.46224 183.594 0.709635 184.064 1.17969C184.535 1.625 184.782 2.18164 184.807 2.84961V21.0332C184.658 22.5176 183.842 23.3216 182.357 23.4453C181.665 23.4453 181.059 23.2227 180.539 22.7773C180.044 22.3073 179.797 21.7259 179.797 21.0332V2.84961C179.822 2.1569 180.081 1.58789 180.576 1.14258C181.071 0.672526 181.665 0.4375 182.357 0.4375ZM188.703 6.96875C190.361 5.85547 192.6 4.72982 195.42 3.5918L201.506 0.994141C201.778 0.870443 202.075 0.796224 202.396 0.771484C203.089 0.722005 203.683 0.932292 204.178 1.40234C204.673 1.84766 204.92 2.42904 204.92 3.14648C204.92 3.96289 204.747 4.56901 204.4 4.96484C204.079 5.33594 203.658 5.64518 203.139 5.89258L197.943 7.85938C196.929 8.25521 195.964 8.65104 195.049 9.04688C194.158 9.41797 193.342 9.85091 192.6 10.3457C191.857 10.791 191.462 11.2982 191.412 11.8672C191.462 12.4115 191.857 12.9186 192.6 13.3887C193.342 13.8835 194.158 14.3288 195.049 14.7246C195.964 15.0957 196.929 15.4792 197.943 15.875L203.732 17.9902C204.252 18.2376 204.673 18.5592 204.994 18.9551C205.34 19.3262 205.514 19.9199 205.514 20.7363C205.514 21.4538 205.266 22.0475 204.771 22.5176C204.277 22.9629 203.683 23.1608 202.99 23.1113C202.669 23.0866 202.372 23.0124 202.1 22.8887L195.42 20.1426C192.6 19.0046 190.348 17.8789 188.666 16.7656C187.008 15.6276 186.167 13.9948 186.143 11.8672C186.167 9.73958 187.021 8.10677 188.703 6.96875ZM216.312 1.03125H231.973C232.665 1.05599 233.234 1.31576 233.68 1.81055C234.15 2.30534 234.385 2.89909 234.385 3.5918C234.261 5.07617 233.457 5.88021 231.973 6.00391H217.574C216.634 6.05339 215.855 6.41211 215.236 7.08008C214.618 7.74805 214.16 8.51497 213.863 9.38086C213.591 10.222 213.455 11.0879 213.455 11.9785C213.455 12.8691 213.591 13.7474 213.863 14.6133C214.16 15.4544 214.618 16.209 215.236 16.877C215.855 17.5449 216.634 17.9036 217.574 17.9531H228.855C229.301 17.9284 229.536 17.681 229.561 17.2109V15.0586C229.536 14.5638 229.301 14.3164 228.855 14.3164H219.355C218.663 14.3164 218.069 14.0814 217.574 13.6113C217.104 13.1165 216.869 12.5228 216.869 11.8301C216.869 11.1374 217.104 10.5436 217.574 10.0488C218.069 9.57878 218.663 9.34375 219.355 9.34375H232.047C232.74 9.34375 233.333 9.57878 233.828 10.0488C234.273 10.5189 234.508 11.0879 234.533 11.7559V11.8301V20.5137C234.508 21.1816 234.273 21.7383 233.828 22.1836C233.358 22.6536 232.789 22.901 232.121 22.9258H216.312C214.581 22.8268 213.146 22.1712 212.008 20.959C210.895 19.722 210.09 18.3242 209.596 16.7656C209.126 15.207 208.891 13.6113 208.891 11.9785C208.891 10.3457 209.138 8.75 209.633 7.19141C210.128 5.63281 210.932 4.2474 212.045 3.03516C213.158 1.79818 214.581 1.13021 216.312 1.03125Z" fill="#013475"/>
</svg>
